<svg width="233" height="233" viewBox="0 0 233 233" fill="none" xmlns="http://www.w3.org/2000/svg">
<path d="M46.295 91.3835C51.653 91.3835 55.6757 89.7861 58.3566 86.5904C61.0365 83.3908 62.3794 79.0237 62.3794 73.4812C62.3794 67.9378 61.0365 63.5706 58.3566 60.372C55.6757 57.1763 51.653 55.578 46.295 55.578C41.5681 55.578 37.8114 56.9083 35.025 59.5748C32.2349 62.2374 30.8455 65.9145 30.8455 70.6052V76.3572C30.8455 81.0469 32.2349 84.7241 35.025 87.3876C37.8114 90.0541 41.5681 91.3835 46.295 91.3835ZM49.5737 106.729C44.2128 106.729 39.6465 105.701 35.8718 103.641C32.0961 101.58 29.0807 98.7042 26.8227 95.0089H22.3809V105.452H4.604V87.9753H13.2805V15.9346H30.8455V50.2489H31.2684C33.1728 47.0532 35.7806 44.5849 39.0991 42.843C42.4148 41.1021 46.4005 40.2321 51.0543 40.2321C57.1925 40.2321 62.4117 41.5988 66.7157 44.3351C71.0188 47.0714 74.3013 50.9428 76.5592 55.9493C78.8172 60.9597 79.9443 66.8036 79.9443 73.4812C79.9443 80.0889 78.7802 85.8955 76.4538 90.9059C74.1226 95.9124 70.7023 99.802 66.1864 102.576C61.6714 105.345 56.1347 106.729 49.5737 106.729Z" fill="white"/>
<path d="M9.64062 215.833V203.82L46.0441 168.973C50.1242 165.114 52.8596 162.039 54.2426 159.745C55.6256 157.45 56.319 155.067 56.319 152.589C56.319 148.948 55.1175 146.091 52.7135 144.016C50.3095 141.938 46.9896 140.904 42.7652 140.904C33.3642 140.904 28.0778 145.783 26.9135 155.541H9.64062C10.2213 146.29 13.4467 139.066 19.3167 133.855C25.18 128.653 33.07 126.048 42.9839 126.048C49.3258 126.048 54.8271 127.124 59.4918 129.27C64.1565 131.42 67.7629 134.443 70.314 138.336C72.8641 142.232 74.142 146.874 74.142 152.261C74.142 156.85 72.8984 161.203 70.4228 165.314C67.9472 169.428 63.976 174.036 58.508 179.134L35.8771 199.995L35.9869 200.431H75.1257V215.833H9.64062Z" fill="white"/>
<path d="M144.308 106.583H126.763V91.2408L135.033 99.5107L144.308 90.2356V106.583ZM126.763 40.0807L139.7 52.4864H115.554V70.0313H139.7L126.763 82.4379L109.69 99.5107L97.2838 87.105L114.357 70.0313H90.2114V52.4864H114.357L97.2838 35.4128L109.69 23.0071L126.763 40.0807ZM144.308 32.283L135.032 23.0071L126.763 31.276V15.9347H144.308V32.283Z" fill="white"/>
<path d="M194.994 40.0807L212.069 23.0071L224.474 35.4128L207.401 52.4864H231.546V70.0313H207.4L224.473 87.105L212.068 99.5107L194.994 82.437V106.583H177.449V82.4379L160.376 99.5107L147.97 87.105L165.044 70.0313H140.897V52.4864H165.044L147.97 35.4128L160.376 23.0071L177.449 40.0807V15.9347H194.994V40.0807Z" fill="white"/>
<path d="M126.33 126.721L113.98 138.927L174.962 199.207L134.632 199.207L134.632 216.471L204.774 216.471L204.774 147.172L187.311 147.172L187.311 187.001L126.33 126.721Z" fill="white"/>
</svg>
