<svg width="218" height="218" viewBox="0 0 218 218" fill="none" xmlns="http://www.w3.org/2000/svg">
<path d="M43.4938 85.8544C48.5276 85.8544 52.3069 84.3537 54.8256 81.3514C57.3434 78.3454 58.605 74.2425 58.605 69.0353C58.605 63.8273 57.3434 59.7243 54.8256 56.7193C52.3069 53.7169 48.5276 52.2153 43.4938 52.2153C39.0528 52.2153 35.5235 53.4652 32.9057 55.9703C30.2843 58.4718 28.979 61.9264 28.979 66.3333V71.7373C28.979 76.1433 30.2843 79.598 32.9057 82.1004C35.5235 84.6055 39.0528 85.8544 43.4938 85.8544ZM46.574 100.272C41.5376 100.272 37.2475 99.3061 33.7012 97.3702C30.154 95.4343 27.321 92.7322 25.1996 89.2605H21.0265V99.0714H4.3252V82.6525H12.4768V14.9705H28.979V47.2087H29.3763C31.1655 44.2063 33.6155 41.8873 36.7332 40.2508C39.8483 38.6152 43.5929 37.7979 47.9651 37.7979C53.7319 37.7979 58.6353 39.0819 62.679 41.6527C66.7217 44.2234 69.8056 47.8606 71.9269 52.5642C74.0483 57.2714 75.1072 62.7618 75.1072 69.0353C75.1072 75.2432 74.0135 80.6985 71.8278 85.4057C69.6377 90.1093 66.4244 93.7636 62.1817 96.3694C57.9398 98.9716 52.7382 100.272 46.574 100.272Z" fill="white"/>
<path d="M9.05713 202.774V191.488L43.258 158.75C47.0913 155.124 49.6612 152.235 50.9605 150.08C52.2598 147.923 52.9113 145.685 52.9113 143.357C52.9113 139.936 51.7825 137.252 49.5239 135.303C47.2654 133.35 44.1464 132.379 40.1776 132.379C31.3454 132.379 26.3788 136.962 25.285 146.13H9.05713C9.60269 137.439 12.6329 130.652 18.1478 125.757C23.6563 120.869 31.069 118.421 40.3831 118.421C46.3412 118.421 51.5097 119.433 55.8921 121.449C60.2746 123.469 63.6628 126.309 66.0595 129.966C68.4554 133.627 69.656 137.988 69.656 143.049C69.656 147.36 68.4877 151.449 66.1618 155.312C63.836 159.177 60.105 163.507 54.9679 168.296L33.7062 187.895L33.8094 188.305H70.5802V202.774H9.05713Z" fill="white"/>
<path d="M135.577 100.134H119.094V85.7205L126.863 93.4899L135.577 84.7761V100.134ZM119.094 37.6557L131.248 49.3108H108.563V65.7942H131.248L119.094 77.4502L103.054 93.4899L91.3979 81.8348L107.439 65.7942H84.7534V49.3108H107.439L91.3979 33.2702L103.053 21.6151L119.094 37.6557ZM135.577 30.3298L126.862 21.6151L119.094 29.3837V14.9706H135.577V30.3298Z" fill="white"/>
<path d="M183.196 37.6557L199.238 21.6151L210.893 33.2702L194.852 49.3108H217.536V65.7942H194.851L210.892 81.8348L199.237 93.4899L183.196 77.4493V100.134H166.713V77.4502L150.673 93.4899L139.017 81.8348L155.058 65.7942H132.373V49.3108H155.058L139.017 33.2702L150.672 21.6151L166.713 37.6557V14.9706H183.196V37.6557Z" fill="white"/>
<path d="M118.686 119.054L107.083 130.521L164.376 187.154L126.486 187.154L126.486 203.374L192.385 203.374L192.385 138.268L175.978 138.268L175.978 175.687L118.686 119.054Z" fill="white"/>
</svg>
