<svg width="754" height="158" viewBox="0 0 754 158" fill="none" xmlns="http://www.w3.org/2000/svg">
<rect width="754" height="158" fill="white"/>
<path d="M370.163 110.112C375.71 110.112 379.875 108.459 382.65 105.15C385.425 101.838 386.815 97.3163 386.815 91.5781C386.815 85.839 385.425 81.3176 382.65 78.0062C379.875 74.6976 375.71 73.0429 370.163 73.0429C365.269 73.0429 361.38 74.4202 358.495 77.1808C355.606 79.9374 354.168 83.7443 354.168 88.6006V94.5557C354.168 99.411 355.606 103.218 358.495 105.975C361.38 108.736 365.269 110.112 370.163 110.112ZM373.557 126C368.007 126 363.28 124.936 359.372 122.802C355.463 120.669 352.341 117.692 350.003 113.866H345.404V124.677H327V106.584H335.983V32H354.168V67.5257H354.606C356.577 64.2172 359.277 61.6617 362.713 59.8583C366.146 58.056 370.272 57.1552 375.09 57.1552C381.445 57.1552 386.848 58.5702 391.304 61.4031C395.759 64.236 399.158 68.2441 401.495 73.4273C403.833 78.6146 405 84.6648 405 91.5781C405 98.4191 403.795 104.431 401.386 109.618C398.973 114.801 395.432 118.828 390.756 121.7C386.082 124.567 380.35 126 373.557 126Z" fill="#151927"/>
<path d="M440.451 112.303C443.901 112.303 446.947 111.681 449.589 110.433C452.234 109.19 454.325 107.518 455.866 105.428C457.406 103.339 458.176 100.974 458.176 98.335V97.345H440.121C433.513 97.345 430.213 99.8021 430.213 104.716C430.213 107.135 431.126 109.004 432.964 110.324C434.801 111.643 437.294 112.303 440.451 112.303ZM437.7 126.164C429.916 126.164 423.826 124.276 419.424 120.5C415.018 116.724 412.817 111.753 412.817 105.595C412.817 99.066 415.09 94.0423 419.643 90.5243C424.19 87.0012 430.725 85.2427 439.241 85.2427H458.176V82.7135C458.176 75.6003 453.919 72.0437 445.407 72.0437C437.992 72.0437 433.513 74.6104 431.973 79.7448H413.807C415.272 72.4844 418.687 66.9825 424.046 63.2441C429.404 59.5017 436.523 57.6325 445.407 57.6325C455.24 57.6325 462.746 59.8317 467.922 64.233C473.099 68.6314 475.682 75.051 475.682 83.4832V106.915H484.27V124.955H465.774V114.176H461.152C458.875 117.99 455.828 120.94 452.014 123.029C448.196 125.122 443.422 126.164 437.7 126.164Z" fill="#151927"/>
<path d="M523.467 126.274C513.779 126.274 506.124 124.238 500.512 120.17C494.896 116.097 491.868 110.399 491.427 103.062H509.043C509.631 106.217 511.153 108.564 513.612 110.104C516.071 111.643 519.616 112.412 524.237 112.412C531.797 112.412 535.576 110.323 535.576 106.145C535.576 104.457 535.008 103.12 533.872 102.13C532.73 101.14 530.845 100.389 528.2 99.8734L513.449 97.0153C500.235 94.4476 493.628 88.2532 493.628 78.4211C493.628 72.116 496.163 67.0736 501.226 63.2966C506.292 59.5207 513.301 57.6328 522.257 57.6328C531.136 57.6328 538.184 59.577 543.394 63.4636C548.608 67.3502 551.469 72.776 551.982 79.745H534.366C533.558 76.6616 532.127 74.4249 530.074 73.0338C528.018 71.6418 525.042 70.9404 521.156 70.9404C517.779 70.9404 515.21 71.4373 513.449 72.4272C511.685 73.4162 510.804 74.903 510.804 76.8819C510.804 78.2769 511.358 79.4486 512.459 80.4039C513.558 81.3563 515.243 82.0538 517.521 82.4934L532.605 85.3526C539.505 86.7475 544.57 88.9842 547.8 92.0637C551.029 95.1421 552.646 99.3241 552.646 104.606C552.646 111.422 550.13 116.743 545.101 120.553C540.073 124.368 532.86 126.274 523.467 126.274Z" fill="#151927"/>
<path d="M577.305 84.5826H609.456C608.867 80.4046 607.254 77.2688 604.613 75.1763C601.968 73.0868 598.409 72.0436 593.93 72.0436C589.453 72.0436 585.802 73.1056 582.975 75.2327C580.151 77.3597 578.258 80.4767 577.305 84.5826ZM594.481 126.274C587.362 126.274 581.161 124.864 575.875 122.04C570.588 119.218 566.516 115.219 563.652 110.051C560.79 104.879 559.359 98.7744 559.359 91.7333C559.359 84.6922 560.753 78.6263 563.545 73.5265C566.33 68.4306 570.315 64.5065 575.492 61.7571C580.663 59.0086 586.773 57.6324 593.82 57.6324C600.719 57.6324 606.647 58.9513 611.603 61.5911C616.555 64.2338 620.354 68.0098 622.999 72.9238C625.64 77.8379 626.961 83.7033 626.961 90.5241V96.6849H576.865C577.598 101.599 579.469 105.337 582.482 107.904C585.487 110.472 589.453 111.753 594.371 111.753C598.26 111.753 601.342 111.093 603.619 109.773C605.896 108.454 607.509 106.437 608.465 103.722H626.741C625.273 110.763 621.713 116.284 616.062 120.28C610.408 124.276 603.217 126.274 594.481 126.274Z" fill="#151927"/>
<path d="M639.203 124.955V112.518L676.892 76.4408C681.116 72.4456 683.948 69.2614 685.38 66.8874C686.811 64.5104 687.529 62.0435 687.529 59.4788C687.529 55.7088 686.285 52.7509 683.797 50.6031C681.308 48.4513 677.871 47.3804 673.497 47.3804C663.764 47.3804 658.291 52.4318 657.086 62.5345H639.203C639.804 52.9574 643.144 45.4776 649.221 40.0834C655.291 34.6971 663.46 32 673.724 32C680.289 32 685.985 33.1144 690.814 35.3363C695.643 37.5622 699.377 40.692 702.018 44.7218C704.658 48.7556 705.982 53.562 705.982 59.1389C705.982 63.89 704.694 68.396 702.131 72.6521C699.568 76.9121 695.457 81.6829 689.796 86.9605L666.366 108.558L666.479 109.009H707V124.955H639.203Z" fill="#151927"/>
<path d="M60.7861 32.0824L48 44.7194L111.136 107.128L69.3811 107.128L69.3811 125.001L142 125.001L142 53.2563L123.92 53.2563L123.92 94.4907L60.7861 32.0824Z" fill="#151927"/>
<path d="M207.5 125H189.5V109.26L197.984 117.744L207.5 108.229V125ZM189.5 56.7725L202.772 69.5H178V87.5H202.772L189.5 100.229L171.984 117.744L159.256 105.017L176.772 87.5H152V69.5H176.772L159.256 51.9834L171.983 39.2559L189.5 56.7725ZM207.5 48.7725L197.983 39.2559L189.5 47.7393V32H207.5V48.7725Z" fill="#151927"/>
<path d="M259.5 56.7725L277.018 39.2559L289.745 51.9834L272.229 69.5H297V87.5H272.228L289.744 105.017L277.017 117.744L259.5 100.228V125H241.5V100.229L223.984 117.744L211.256 105.017L228.772 87.5H204V69.5H228.772L211.256 51.9834L223.983 39.2559L241.5 56.7725V32H259.5V56.7725Z" fill="#151927"/>
</svg>
