<svg width="677" height="95" viewBox="0 0 677 95" fill="none" xmlns="http://www.w3.org/2000/svg">
<path d="M322.163 78.1124C327.71 78.1124 331.875 76.4586 334.65 73.1501C337.425 69.8376 338.815 65.3163 338.815 59.5781C338.815 53.839 337.425 49.3176 334.65 46.0062C331.875 42.6976 327.71 41.0429 322.163 41.0429C317.269 41.0429 313.38 42.4202 310.495 45.1808C307.606 47.9374 306.168 51.7443 306.168 56.6006V62.5557C306.168 67.411 307.606 71.2179 310.495 73.9755C313.38 76.736 317.269 78.1124 322.163 78.1124ZM325.557 94C320.007 94 315.28 92.9358 311.372 90.8025C307.463 88.6691 304.341 85.6915 302.003 81.8658H297.404V92.6772H279V74.5839H287.983V0H306.168V35.5257H306.606C308.577 32.2172 311.277 29.6617 314.713 27.8583C318.146 26.056 322.272 25.1552 327.09 25.1552C333.445 25.1552 338.848 26.5702 343.304 29.4031C347.759 32.236 351.158 36.2441 353.495 41.4273C355.833 46.6146 357 52.6648 357 59.5781C357 66.4191 355.795 72.4307 353.386 77.6179C350.973 82.8012 347.432 86.8281 342.756 89.6996C338.082 92.5672 332.35 94 325.557 94Z" fill="white"/>
<path d="M392.451 80.3026C395.901 80.3026 398.947 79.6811 401.588 78.4334C404.233 77.1895 406.325 75.5179 407.865 73.4284C409.406 71.3389 410.176 68.9738 410.176 66.335V65.345H392.12C385.513 65.345 382.213 67.8021 382.213 72.7161C382.213 75.1346 383.126 77.0038 384.963 78.3237C386.801 79.6426 389.293 80.3026 392.451 80.3026ZM389.7 94.1644C381.916 94.1644 375.826 92.2765 371.424 88.4995C367.018 84.7236 364.816 79.7533 364.816 73.5954C364.816 67.066 367.09 62.0423 371.643 58.5243C376.19 55.0012 382.725 53.2427 391.24 53.2427H410.176V50.7135C410.176 43.6003 405.918 40.0437 397.407 40.0437C389.992 40.0437 385.513 42.6104 383.973 47.7448H365.807C367.272 40.4844 370.687 34.9825 376.045 31.2441C381.404 27.5017 388.523 25.6325 397.407 25.6325C407.239 25.6325 414.745 27.8317 419.922 32.233C425.098 36.6314 427.682 43.051 427.682 51.4832V74.9153H436.27V92.9552H417.774V82.1757H413.151C410.875 85.9902 407.828 88.9402 404.014 91.0287C400.196 93.1221 395.422 94.1644 389.7 94.1644Z" fill="white"/>
<path d="M475.467 94.2743C465.779 94.2743 458.124 92.2381 452.512 88.1698C446.896 84.0975 443.868 78.399 443.427 71.0625H461.043C461.631 74.217 463.153 76.5644 465.612 78.1036C468.071 79.6428 471.616 80.4124 476.237 80.4124C483.797 80.4124 487.576 78.3229 487.576 74.1449C487.576 72.4575 487.008 71.1198 485.872 70.1299C484.73 69.1399 482.845 68.3891 480.2 67.8734L465.449 65.0153C452.235 62.4476 445.628 56.2532 445.628 46.4211C445.628 40.116 448.163 35.0736 453.226 31.2966C458.292 27.5207 465.301 25.6328 474.257 25.6328C483.136 25.6328 490.184 27.577 495.394 31.4636C500.608 35.3502 503.469 40.776 503.982 47.745H486.366C485.558 44.6616 484.127 42.4249 482.074 41.0338C480.018 39.6418 477.042 38.9404 473.156 38.9404C469.779 38.9404 467.21 39.4373 465.449 40.4272C463.685 41.4162 462.804 42.903 462.804 44.8819C462.804 46.2769 463.358 47.4486 464.459 48.4039C465.558 49.3563 467.243 50.0538 469.521 50.4934L484.605 53.3526C491.505 54.7475 496.57 56.9842 499.8 60.0637C503.029 63.1421 504.646 67.3241 504.646 72.6057C504.646 79.4225 502.13 84.7426 497.101 88.5531C492.073 92.3676 484.86 94.2743 475.467 94.2743Z" fill="white"/>
<path d="M529.305 52.5826H561.456C560.867 48.4045 559.254 45.2688 556.613 43.1763C553.968 41.0868 550.409 40.0436 545.93 40.0436C541.453 40.0436 537.802 41.1056 534.975 43.2327C532.151 45.3597 530.258 48.4767 529.305 52.5826ZM546.481 94.2739C539.362 94.2739 533.161 92.8641 527.875 90.0396C522.588 87.218 518.516 83.2188 515.652 78.0509C512.79 72.879 511.359 66.7744 511.359 59.7333C511.359 52.6922 512.753 46.6263 515.545 41.5265C518.33 36.4306 522.315 32.5065 527.492 29.7571C532.663 27.0086 538.773 25.6324 545.82 25.6324C552.719 25.6324 558.647 26.9513 563.603 29.5911C568.555 32.2338 572.354 36.0098 574.999 40.9238C577.64 45.8379 578.961 51.7033 578.961 58.5241V64.6849H528.865C529.598 69.599 531.469 73.3374 534.482 75.904C537.487 78.4717 541.453 79.7531 546.371 79.7531C550.26 79.7531 553.342 79.0931 555.619 77.7732C557.896 76.4543 559.509 74.4369 560.465 71.7221H578.741C577.273 78.7632 573.713 84.2838 568.062 88.2801C562.408 92.2763 555.217 94.2739 546.481 94.2739Z" fill="white"/>
<path d="M609 92.955V80.5177L646.689 44.4408C650.913 40.4456 653.745 37.2614 655.177 34.8874C656.608 32.5104 657.326 30.0435 657.326 27.4788C657.326 23.7088 656.082 20.7509 653.593 18.6031C651.105 16.4513 647.667 15.3804 643.294 15.3804C633.561 15.3804 628.088 20.4318 626.883 30.5345H609C609.601 20.9574 612.94 13.4776 619.018 8.08342C625.088 2.69714 633.257 4.57764e-05 643.52 4.57764e-05C650.086 4.57764e-05 655.782 1.11445 660.611 3.33633C665.44 5.56218 669.174 8.69199 671.815 12.7218C674.455 16.7556 675.778 21.562 675.778 27.1389C675.778 31.89 674.491 36.396 671.928 40.6521C669.365 44.9121 665.253 49.6829 659.593 54.9605L636.163 76.558L636.276 77.0095H676.797V92.955H609Z" fill="white"/>
<path d="M12.7861 0.0824239L4.1171e-06 12.7194L63.1356 75.1277L21.3811 75.1277L21.3811 93.0011L94 93.0011L94 21.2563L75.9196 21.2563L75.9196 62.4907L12.7861 0.0824239Z" fill="white"/>
<path d="M159.5 93H141.5V77.2598L149.984 85.7441L159.5 76.2285V93ZM141.5 24.7725L154.772 37.5H130V55.5H154.772L141.5 68.2285L123.984 85.7441L111.256 73.0166L128.772 55.5H104V37.5H128.772L111.256 19.9834L123.983 7.25586L141.5 24.7725ZM159.5 16.7725L149.983 7.25586L141.5 15.7393V0H159.5V16.7725Z" fill="white"/>
<path d="M211.5 24.7725L229.018 7.25586L241.745 19.9834L224.229 37.5H249V55.5H224.228L241.744 73.0166L229.017 85.7441L211.5 68.2275V93H193.5V68.2285L175.984 85.7441L163.256 73.0166L180.772 55.5H156V37.5H180.772L163.256 19.9834L175.983 7.25586L193.5 24.7725V0H211.5V24.7725Z" fill="white"/>
</svg>
