<svg width="785" height="158" viewBox="0 0 785 158" fill="none" xmlns="http://www.w3.org/2000/svg">
<rect width="785" height="158" fill="white"/>
<path d="M376.163 110.112C381.71 110.112 385.875 108.459 388.65 105.15C391.425 101.838 392.815 97.3163 392.815 91.5781C392.815 85.839 391.425 81.3176 388.65 78.0062C385.875 74.6976 381.71 73.0429 376.163 73.0429C371.269 73.0429 367.38 74.4202 364.495 77.1808C361.606 79.9374 360.168 83.7443 360.168 88.6006V94.5557C360.168 99.411 361.606 103.218 364.495 105.975C367.38 108.736 371.269 110.112 376.163 110.112ZM379.557 126C374.007 126 369.28 124.936 365.372 122.802C361.463 120.669 358.341 117.692 356.003 113.866H351.404V124.677H333V106.584H341.983V32H360.168V67.5257H360.606C362.577 64.2172 365.277 61.6617 368.713 59.8583C372.146 58.056 376.272 57.1552 381.09 57.1552C387.445 57.1552 392.848 58.5702 397.304 61.4031C401.759 64.236 405.158 68.2441 407.495 73.4273C409.833 78.6146 411 84.6648 411 91.5781C411 98.4191 409.795 104.431 407.386 109.618C404.973 114.801 401.432 118.828 396.756 121.7C392.082 124.567 386.35 126 379.557 126Z" fill="#151927"/>
<path d="M446.451 112.303C449.901 112.303 452.947 111.681 455.589 110.433C458.234 109.19 460.325 107.518 461.866 105.428C463.406 103.339 464.176 100.974 464.176 98.335V97.345H446.121C439.513 97.345 436.213 99.8021 436.213 104.716C436.213 107.135 437.126 109.004 438.964 110.324C440.801 111.643 443.294 112.303 446.451 112.303ZM443.7 126.164C435.916 126.164 429.826 124.276 425.424 120.5C421.018 116.724 418.817 111.753 418.817 105.595C418.817 99.066 421.09 94.0423 425.643 90.5243C430.19 87.0012 436.725 85.2427 445.241 85.2427H464.176V82.7135C464.176 75.6003 459.919 72.0437 451.407 72.0437C443.992 72.0437 439.513 74.6104 437.973 79.7448H419.807C421.272 72.4844 424.687 66.9825 430.046 63.2441C435.404 59.5017 442.523 57.6325 451.407 57.6325C461.24 57.6325 468.746 59.8317 473.922 64.233C479.099 68.6314 481.682 75.051 481.682 83.4832V106.915H490.27V124.955H471.774V114.176H467.152C464.875 117.99 461.828 120.94 458.014 123.029C454.196 125.122 449.422 126.164 443.7 126.164Z" fill="#151927"/>
<path d="M529.467 126.274C519.779 126.274 512.124 124.238 506.512 120.17C500.896 116.097 497.868 110.399 497.427 103.062H515.043C515.631 106.217 517.153 108.564 519.612 110.104C522.071 111.643 525.616 112.412 530.237 112.412C537.797 112.412 541.576 110.323 541.576 106.145C541.576 104.457 541.008 103.12 539.872 102.13C538.73 101.14 536.845 100.389 534.2 99.8734L519.449 97.0153C506.235 94.4476 499.628 88.2532 499.628 78.4211C499.628 72.116 502.163 67.0736 507.226 63.2966C512.292 59.5207 519.301 57.6328 528.257 57.6328C537.136 57.6328 544.184 59.577 549.394 63.4636C554.608 67.3502 557.469 72.776 557.982 79.745H540.366C539.558 76.6616 538.127 74.4249 536.074 73.0338C534.018 71.6418 531.042 70.9404 527.156 70.9404C523.779 70.9404 521.21 71.4373 519.449 72.4272C517.685 73.4162 516.804 74.903 516.804 76.8819C516.804 78.2769 517.358 79.4486 518.459 80.4039C519.558 81.3563 521.243 82.0538 523.521 82.4934L538.605 85.3526C545.505 86.7475 550.57 88.9842 553.8 92.0637C557.029 95.1421 558.646 99.3241 558.646 104.606C558.646 111.422 556.13 116.743 551.101 120.553C546.073 124.368 538.86 126.274 529.467 126.274Z" fill="#151927"/>
<path d="M583.305 84.5826H615.456C614.867 80.4046 613.254 77.2688 610.613 75.1763C607.968 73.0868 604.409 72.0436 599.93 72.0436C595.453 72.0436 591.802 73.1056 588.975 75.2327C586.151 77.3597 584.258 80.4767 583.305 84.5826ZM600.481 126.274C593.362 126.274 587.161 124.864 581.875 122.04C576.588 119.218 572.516 115.219 569.652 110.051C566.79 104.879 565.359 98.7744 565.359 91.7333C565.359 84.6922 566.753 78.6263 569.545 73.5265C572.33 68.4306 576.315 64.5065 581.492 61.7571C586.663 59.0086 592.773 57.6324 599.82 57.6324C606.719 57.6324 612.647 58.9513 617.603 61.5911C622.555 64.2338 626.354 68.0098 628.999 72.9238C631.64 77.8379 632.961 83.7033 632.961 90.5241V96.6849H582.865C583.598 101.599 585.469 105.337 588.482 107.904C591.487 110.472 595.453 111.753 600.371 111.753C604.26 111.753 607.342 111.093 609.619 109.773C611.896 108.454 613.509 106.437 614.465 103.722H632.741C631.273 110.763 627.713 116.284 622.062 120.28C616.408 124.276 609.217 126.274 600.481 126.274Z" fill="#151927"/>
<path d="M663 124.955V112.518L700.689 76.4408C704.913 72.4456 707.745 69.2614 709.177 66.8874C710.608 64.5104 711.326 62.0435 711.326 59.4788C711.326 55.7088 710.082 52.7509 707.593 50.6031C705.105 48.4513 701.667 47.3804 697.294 47.3804C687.561 47.3804 682.088 52.4318 680.883 62.5345H663C663.601 52.9574 666.94 45.4776 673.018 40.0834C679.088 34.6971 687.257 32 697.52 32C704.086 32 709.782 33.1144 714.611 35.3363C719.44 37.5622 723.174 40.692 725.815 44.7218C728.455 48.7556 729.778 53.562 729.778 59.1389C729.778 63.89 728.491 68.396 725.928 72.6521C723.365 76.9121 719.253 81.6829 713.593 86.9605L690.163 108.558L690.276 109.009H730.797V124.955H663Z" fill="#151927"/>
<path d="M66.7861 32.0824L54 44.7194L117.136 107.128L75.3811 107.128L75.3811 125.001L148 125.001L148 53.2563L129.92 53.2563L129.92 94.4907L66.7861 32.0824Z" fill="#151927"/>
<path d="M213.5 125H195.5V109.26L203.984 117.744L213.5 108.229V125ZM195.5 56.7725L208.772 69.5H184V87.5H208.772L195.5 100.229L177.984 117.744L165.256 105.017L182.772 87.5H158V69.5H182.772L165.256 51.9834L177.983 39.2559L195.5 56.7725ZM213.5 48.7725L203.983 39.2559L195.5 47.7393V32H213.5V48.7725Z" fill="#151927"/>
<path d="M265.5 56.7725L283.018 39.2559L295.745 51.9834L278.229 69.5H303V87.5H278.228L295.744 105.017L283.017 117.744L265.5 100.228V125H247.5V100.229L229.984 117.744L217.256 105.017L234.772 87.5H210V69.5H234.772L217.256 51.9834L229.983 39.2559L247.5 56.7725V32H265.5V56.7725Z" fill="#151927"/>
</svg>
