<svg width="759" height="158" viewBox="0 0 759 158" fill="none" xmlns="http://www.w3.org/2000/svg">
<rect width="759" height="158" fill="white"/>
<path d="M371.163 110.112C376.71 110.112 380.875 108.459 383.65 105.15C386.425 101.838 387.815 97.3163 387.815 91.5781C387.815 85.839 386.425 81.3176 383.65 78.0062C380.875 74.6976 376.71 73.0429 371.163 73.0429C366.269 73.0429 362.38 74.4202 359.495 77.1808C356.606 79.9374 355.168 83.7443 355.168 88.6006V94.5557C355.168 99.411 356.606 103.218 359.495 105.975C362.38 108.736 366.269 110.112 371.163 110.112ZM374.557 126C369.007 126 364.28 124.936 360.372 122.802C356.463 120.669 353.341 117.692 351.003 113.866H346.404V124.677H328V106.584H336.983V32H355.168V67.5257H355.606C357.577 64.2172 360.277 61.6617 363.713 59.8583C367.146 58.056 371.272 57.1552 376.09 57.1552C382.445 57.1552 387.848 58.5702 392.304 61.4031C396.759 64.236 400.158 68.2441 402.495 73.4273C404.833 78.6146 406 84.6648 406 91.5781C406 98.4191 404.795 104.431 402.386 109.618C399.973 114.801 396.432 118.828 391.756 121.7C387.082 124.567 381.35 126 374.557 126Z" fill="#151927"/>
<path d="M441.451 112.303C444.901 112.303 447.947 111.681 450.589 110.433C453.234 109.19 455.325 107.518 456.866 105.428C458.406 103.339 459.176 100.974 459.176 98.335V97.345H441.121C434.513 97.345 431.213 99.8021 431.213 104.716C431.213 107.135 432.126 109.004 433.964 110.324C435.801 111.643 438.294 112.303 441.451 112.303ZM438.7 126.164C430.916 126.164 424.826 124.276 420.424 120.5C416.018 116.724 413.817 111.753 413.817 105.595C413.817 99.066 416.09 94.0423 420.643 90.5243C425.19 87.0012 431.725 85.2427 440.241 85.2427H459.176V82.7135C459.176 75.6003 454.919 72.0437 446.407 72.0437C438.992 72.0437 434.513 74.6104 432.973 79.7448H414.807C416.272 72.4844 419.687 66.9825 425.046 63.2441C430.404 59.5017 437.523 57.6325 446.407 57.6325C456.24 57.6325 463.746 59.8317 468.922 64.233C474.099 68.6314 476.682 75.051 476.682 83.4832V106.915H485.27V124.955H466.774V114.176H462.152C459.875 117.99 456.828 120.94 453.014 123.029C449.196 125.122 444.422 126.164 438.7 126.164Z" fill="#151927"/>
<path d="M524.467 126.274C514.779 126.274 507.124 124.238 501.512 120.17C495.896 116.097 492.868 110.399 492.427 103.062H510.043C510.631 106.217 512.153 108.564 514.612 110.104C517.071 111.643 520.616 112.412 525.237 112.412C532.797 112.412 536.576 110.323 536.576 106.145C536.576 104.457 536.008 103.12 534.872 102.13C533.73 101.14 531.845 100.389 529.2 99.8734L514.449 97.0153C501.235 94.4476 494.628 88.2532 494.628 78.4211C494.628 72.116 497.163 67.0736 502.226 63.2966C507.292 59.5207 514.301 57.6328 523.257 57.6328C532.136 57.6328 539.184 59.577 544.394 63.4636C549.608 67.3502 552.469 72.776 552.982 79.745H535.366C534.558 76.6616 533.127 74.4249 531.074 73.0338C529.018 71.6418 526.042 70.9404 522.156 70.9404C518.779 70.9404 516.21 71.4373 514.449 72.4272C512.685 73.4162 511.804 74.903 511.804 76.8819C511.804 78.2769 512.358 79.4486 513.459 80.4039C514.558 81.3563 516.243 82.0538 518.521 82.4934L533.605 85.3526C540.505 86.7475 545.57 88.9842 548.8 92.0637C552.029 95.1421 553.646 99.3241 553.646 104.606C553.646 111.422 551.13 116.743 546.101 120.553C541.073 124.368 533.86 126.274 524.467 126.274Z" fill="#151927"/>
<path d="M578.305 84.5826H610.456C609.867 80.4046 608.254 77.2688 605.613 75.1763C602.968 73.0868 599.409 72.0436 594.93 72.0436C590.453 72.0436 586.802 73.1056 583.975 75.2327C581.151 77.3597 579.258 80.4767 578.305 84.5826ZM595.481 126.274C588.362 126.274 582.161 124.864 576.875 122.04C571.588 119.218 567.516 115.219 564.652 110.051C561.79 104.879 560.359 98.7744 560.359 91.7333C560.359 84.6922 561.753 78.6263 564.545 73.5265C567.33 68.4306 571.315 64.5065 576.492 61.7571C581.663 59.0086 587.773 57.6324 594.82 57.6324C601.719 57.6324 607.647 58.9513 612.603 61.5911C617.555 64.2338 621.354 68.0098 623.999 72.9238C626.64 77.8379 627.961 83.7033 627.961 90.5241V96.6849H577.865C578.598 101.599 580.469 105.337 583.482 107.904C586.487 110.472 590.453 111.753 595.371 111.753C599.26 111.753 602.342 111.093 604.619 109.773C606.896 108.454 608.509 106.437 609.465 103.722H627.741C626.273 110.763 622.713 116.284 617.062 120.28C611.408 124.276 604.217 126.274 595.481 126.274Z" fill="#151927"/>
<path d="M658 124.955V112.518L695.689 76.4408C699.913 72.4456 702.745 69.2614 704.177 66.8874C705.608 64.5104 706.326 62.0435 706.326 59.4788C706.326 55.7088 705.082 52.7509 702.593 50.6031C700.105 48.4513 696.667 47.3804 692.294 47.3804C682.561 47.3804 677.088 52.4318 675.883 62.5345H658C658.601 52.9574 661.94 45.4776 668.018 40.0834C674.088 34.6971 682.257 32 692.52 32C699.086 32 704.782 33.1144 709.611 35.3363C714.44 37.5622 718.174 40.692 720.815 44.7218C723.455 48.7556 724.778 53.562 724.778 59.1389C724.778 63.89 723.491 68.396 720.928 72.6521C718.365 76.9121 714.253 81.6829 708.593 86.9605L685.163 108.558L685.276 109.009H725.797V124.955H658Z" fill="#151927"/>
<path d="M45.7861 32.0824L33 44.7194L96.1356 107.128L54.3811 107.128L54.3811 125.001L127 125.001L127 53.2563L108.92 53.2563L108.92 94.4907L45.7861 32.0824Z" fill="#151927"/>
<path d="M192.5 125H174.5V109.26L182.984 117.744L192.5 108.229V125ZM174.5 56.7725L187.772 69.5H163V87.5H187.772L174.5 100.229L156.984 117.744L144.256 105.017L161.772 87.5H137V69.5H161.772L144.256 51.9834L156.983 39.2559L174.5 56.7725ZM192.5 48.7725L182.983 39.2559L174.5 47.7393V32H192.5V48.7725Z" fill="#151927"/>
<path d="M244.5 56.7725L262.018 39.2559L274.745 51.9834L257.229 69.5H282V87.5H257.228L274.744 105.017L262.017 117.744L244.5 100.228V125H226.5V100.229L208.984 117.744L196.256 105.017L213.772 87.5H189V69.5H213.772L196.256 51.9834L208.983 39.2559L226.5 56.7725V32H244.5V56.7725Z" fill="#151927"/>
</svg>
