<svg width="693" height="95" viewBox="0 0 693 95" fill="none" xmlns="http://www.w3.org/2000/svg">
<path d="M338.163 78.1124C343.71 78.1124 347.875 76.4586 350.65 73.1501C353.425 69.8376 354.815 65.3163 354.815 59.5781C354.815 53.839 353.425 49.3176 350.65 46.0062C347.875 42.6976 343.71 41.0429 338.163 41.0429C333.269 41.0429 329.38 42.4202 326.495 45.1808C323.606 47.9374 322.168 51.7443 322.168 56.6006V62.5557C322.168 67.411 323.606 71.2179 326.495 73.9755C329.38 76.736 333.269 78.1124 338.163 78.1124ZM341.557 94C336.007 94 331.28 92.9358 327.372 90.8025C323.463 88.6691 320.341 85.6915 318.003 81.8658H313.404V92.6772H295V74.5839H303.983V0H322.168V35.5257H322.606C324.577 32.2172 327.277 29.6617 330.713 27.8583C334.146 26.056 338.272 25.1552 343.09 25.1552C349.445 25.1552 354.848 26.5702 359.304 29.4031C363.759 32.236 367.158 36.2441 369.495 41.4273C371.833 46.6146 373 52.6648 373 59.5781C373 66.4191 371.795 72.4307 369.386 77.6179C366.973 82.8012 363.432 86.8281 358.756 89.6996C354.082 92.5672 348.35 94 341.557 94Z" fill="#151927"/>
<path d="M408.451 80.3026C411.901 80.3026 414.947 79.6811 417.589 78.4334C420.234 77.1895 422.325 75.5179 423.866 73.4284C425.406 71.3389 426.176 68.9738 426.176 66.335V65.345H408.121C401.513 65.345 398.213 67.8021 398.213 72.7161C398.213 75.1346 399.126 77.0038 400.964 78.3237C402.801 79.6426 405.294 80.3026 408.451 80.3026ZM405.7 94.1644C397.916 94.1644 391.826 92.2765 387.424 88.4995C383.018 84.7236 380.817 79.7533 380.817 73.5954C380.817 67.066 383.09 62.0423 387.643 58.5243C392.19 55.0012 398.725 53.2427 407.241 53.2427H426.176V50.7135C426.176 43.6003 421.919 40.0437 413.407 40.0437C405.992 40.0437 401.513 42.6104 399.973 47.7448H381.807C383.272 40.4844 386.687 34.9825 392.046 31.2441C397.404 27.5017 404.523 25.6325 413.407 25.6325C423.24 25.6325 430.746 27.8317 435.922 32.233C441.099 36.6314 443.682 43.051 443.682 51.4832V74.9153H452.27V92.9552H433.774V82.1757H429.152C426.875 85.9902 423.828 88.9402 420.014 91.0287C416.196 93.1221 411.422 94.1644 405.7 94.1644Z" fill="#151927"/>
<path d="M491.467 94.2743C481.779 94.2743 474.124 92.2381 468.512 88.1698C462.896 84.0975 459.868 78.399 459.427 71.0625H477.043C477.631 74.217 479.153 76.5644 481.612 78.1036C484.071 79.6428 487.616 80.4124 492.237 80.4124C499.797 80.4124 503.576 78.3229 503.576 74.1449C503.576 72.4575 503.008 71.1198 501.872 70.1299C500.73 69.1399 498.845 68.3891 496.2 67.8734L481.449 65.0153C468.235 62.4476 461.628 56.2532 461.628 46.4211C461.628 40.116 464.163 35.0736 469.226 31.2966C474.292 27.5207 481.301 25.6328 490.257 25.6328C499.136 25.6328 506.184 27.577 511.394 31.4636C516.608 35.3502 519.469 40.776 519.982 47.745H502.366C501.558 44.6616 500.127 42.4249 498.074 41.0338C496.018 39.6418 493.042 38.9404 489.156 38.9404C485.779 38.9404 483.21 39.4373 481.449 40.4272C479.685 41.4162 478.804 42.903 478.804 44.8819C478.804 46.2769 479.358 47.4486 480.459 48.4039C481.558 49.3563 483.243 50.0538 485.521 50.4934L500.605 53.3526C507.505 54.7475 512.57 56.9842 515.8 60.0637C519.029 63.1421 520.646 67.3241 520.646 72.6057C520.646 79.4225 518.13 84.7426 513.101 88.5531C508.073 92.3676 500.86 94.2743 491.467 94.2743Z" fill="#151927"/>
<path d="M545.305 52.5826H577.456C576.867 48.4045 575.254 45.2688 572.613 43.1763C569.968 41.0868 566.409 40.0436 561.93 40.0436C557.453 40.0436 553.802 41.1056 550.975 43.2327C548.151 45.3597 546.258 48.4767 545.305 52.5826ZM562.481 94.2739C555.362 94.2739 549.161 92.8641 543.875 90.0396C538.588 87.218 534.516 83.2188 531.652 78.0509C528.79 72.879 527.359 66.7744 527.359 59.7333C527.359 52.6922 528.753 46.6263 531.545 41.5265C534.33 36.4306 538.315 32.5065 543.492 29.7571C548.663 27.0086 554.773 25.6324 561.82 25.6324C568.719 25.6324 574.647 26.9513 579.603 29.5911C584.555 32.2338 588.354 36.0098 590.999 40.9238C593.64 45.8379 594.961 51.7033 594.961 58.5241V64.6849H544.865C545.598 69.599 547.469 73.3374 550.482 75.904C553.487 78.4717 557.453 79.7531 562.371 79.7531C566.26 79.7531 569.342 79.0931 571.619 77.7732C573.896 76.4543 575.509 74.4369 576.465 71.7221H594.741C593.273 78.7632 589.713 84.2838 584.062 88.2801C578.408 92.2763 571.217 94.2739 562.481 94.2739Z" fill="#151927"/>
<path d="M625 92.955V80.5177L662.689 44.4408C666.913 40.4456 669.745 37.2614 671.177 34.8874C672.608 32.5104 673.326 30.0435 673.326 27.4788C673.326 23.7088 672.082 20.7509 669.593 18.6031C667.105 16.4513 663.667 15.3804 659.294 15.3804C649.561 15.3804 644.088 20.4318 642.883 30.5345H625C625.601 20.9574 628.94 13.4776 635.018 8.08342C641.088 2.69714 649.257 4.57764e-05 659.52 4.57764e-05C666.086 4.57764e-05 671.782 1.11445 676.611 3.33633C681.44 5.56218 685.174 8.69199 687.815 12.7218C690.455 16.7556 691.778 21.562 691.778 27.1389C691.778 31.89 690.491 36.396 687.928 40.6521C685.365 44.9121 681.253 49.6829 675.593 54.9605L652.163 76.558L652.276 77.0095H692.797V92.955H625Z" fill="#151927"/>
<path d="M12.7861 0.0824239L4.1171e-06 12.7194L63.1356 75.1277L21.3811 75.1277L21.3811 93.0011L94 93.0011L94 21.2563L75.9196 21.2563L75.9196 62.4907L12.7861 0.0824239Z" fill="#151927"/>
<path d="M159.5 93H141.5V77.2598L149.984 85.7441L159.5 76.2285V93ZM141.5 24.7725L154.772 37.5H130V55.5H154.772L141.5 68.2285L123.984 85.7441L111.256 73.0166L128.772 55.5H104V37.5H128.772L111.256 19.9834L123.983 7.25586L141.5 24.7725ZM159.5 16.7725L149.983 7.25586L141.5 15.7393V0H159.5V16.7725Z" fill="#151927"/>
<path d="M211.5 24.7725L229.018 7.25586L241.745 19.9834L224.229 37.5H249V55.5H224.228L241.744 73.0166L229.017 85.7441L211.5 68.2275V93H193.5V68.2285L175.984 85.7441L163.256 73.0166L180.772 55.5H156V37.5H180.772L163.256 19.9834L175.983 7.25586L193.5 24.7725V0H211.5V24.7725Z" fill="#151927"/>
</svg>
