<svg width="1423" height="233" viewBox="0 0 1423 233" fill="none" xmlns="http://www.w3.org/2000/svg">
<path d="M789.5 107.77H758.77L774.25 64.3301L789.5 107.77ZM807.98 133.99L777.83 51.75H770.44L740.17 133.99H749.52L756.11 115.4H792.04L798.62 133.99H807.97H807.98ZM702.62 51.75H693.84V133.99H702.62V51.75ZM645.79 133.99V51.75H637.01V117.48L593.34 51.75H585.02V133.99H593.8V68.0401L637.46 133.99H645.78H645.79ZM536.98 133.99V51.75H528.2L502.1 110.08L475.3 51.75H466.52V133.99H475.3V71.5L498.17 121.06H505.67L528.19 71.5V133.99H536.97H536.98ZM412.8 92.8701C412.8 110.08 412.22 115.62 407.03 120.94C403.45 124.64 398.25 126.83 392.83 126.83C387.41 126.83 382.2 124.63 378.62 120.94C373.42 115.62 372.84 110.08 372.84 92.8701C372.84 75.6601 373.42 70.1101 378.62 64.8001C382.2 61.0901 387.4 58.91 392.83 58.91C398.26 58.91 403.45 61.1001 407.03 64.8001C412.23 70.1101 412.8 75.6601 412.8 92.8701ZM421.58 92.8701C421.58 75.4201 421.58 67.34 413.84 59.6C408.29 54.06 401.01 51.05 392.82 51.05C384.63 51.05 377.33 54.06 371.79 59.6C364.05 67.34 364.05 75.4201 364.05 92.8701C364.05 110.32 364.05 118.4 371.79 126.14C377.33 131.69 384.61 134.69 392.82 134.69C401.03 134.69 408.29 131.69 413.84 126.14C421.58 118.4 421.58 110.31 421.58 92.8701ZM324.54 111.35C324.54 104.54 322.12 98.88 317.61 95.06C314.15 92.06 310.33 90.4401 302.6 89.2901L293.59 87.9001C289.32 87.2101 285.05 85.59 282.5 83.39C279.96 81.2 278.8 77.96 278.8 73.92C278.8 64.8 285.16 58.67 296.13 58.67C304.79 58.67 310.22 61.0901 315.3 65.7201L320.96 60.0601C313.92 53.7001 306.99 51.05 296.47 51.05C280.19 51.05 270.14 60.29 270.14 74.27C270.14 80.85 272.22 85.94 276.38 89.63C279.96 92.75 285.05 94.8301 291.52 95.8701L301.11 97.3701C307.11 98.2901 309.2 98.9801 311.85 101.3C314.51 103.61 315.78 107.31 315.78 111.58C315.78 121.16 308.39 126.83 296.37 126.83C287.13 126.83 280.78 124.63 273.96 117.82L267.95 123.83C275.69 131.56 283.78 134.68 296.14 134.68C313.24 134.68 324.55 125.79 324.55 111.35M230.52 133.99V51.75H210.31V93.1L183.97 51.75H166.3V133.99H186.51V92.64L212.85 133.99H230.53H230.52ZM125.4 133.99V51.75H105.18V93.1L78.8399 51.75H61.1699V133.99H81.3899V92.64L107.73 133.99H125.4ZM20.2799 51.75H0.0699463V133.99H20.2899V51.75H20.2799Z" fill="white"/>
<path d="M92.8799 174.21C92.8799 157.75 101.94 147.76 114.84 147.76C127.74 147.76 136.8 157.78 136.8 174.21C136.8 190.64 127.75 201.03 114.84 201.03C101.93 201.03 92.8799 190.67 92.8799 174.21ZM130.06 174.21C130.06 161.41 124.03 153.51 114.85 153.51C105.67 153.51 99.6399 161.4 99.6399 174.21C99.6399 187.02 105.67 195.28 114.85 195.28C124.03 195.28 130.06 187.01 130.06 174.21Z" fill="white"/>
<path d="M147.66 178.87V148.7H154.2V179.05C154.2 191.4 159.42 195.28 166.13 195.28C172.84 195.28 178.32 191.4 178.32 179.05V148.7H184.59V178.87C184.59 195.36 176.63 201.03 166.14 201.03C155.65 201.03 147.68 195.36 147.68 178.87" fill="white"/>
<path d="M73.81 177.61C80.78 175.9 85.38 171.17 85.38 163.17C85.38 152.47 77.8701 148.71 67.4001 148.71H51.3V200.1H57.84V154.01H66.46C74.46 154.01 78.8601 156.41 78.8601 163.17C78.8601 169.93 74.46 173.07 66.46 173.07H62.34V178.38H67.13L79.5 200.1H86.92L73.81 177.61Z" fill="white"/>
<path d="M213.06 148.71H198.39V200.1H204.92V154.01H212.24C221.27 154.01 225.83 156.43 225.83 163.84C225.83 171.25 221.54 174.41 212.56 174.41H210.31V179.72H213.39C224.64 179.72 232.36 174.66 232.36 163.85C232.36 153.04 224.59 148.72 213.07 148.72" fill="white"/>
<path d="M27.31 173.46H20.38V178.88H27.31V173.46Z" fill="white"/>
<path d="M33.09 173.47V192.27C31.06 194.18 27.52 195.29 23.83 195.29C12.87 195.29 6.76 187.19 6.76 174.28C6.76 161.37 13.41 153.52 23.76 153.52C28.92 153.52 32.22 155.68 34.82 158.37L38.4 154.11C35.39 151 30.7 147.77 23.58 147.77C9.96 147.77 0 157.88 0 174.45C0 191.02 9.65 201.04 23.2 201.04C30.11 201.04 35.74 198.51 39.05 195.07V173.47H33.08H33.09Z" fill="white"/>
<path d="M919.98 0V232.18" stroke="white" stroke-width="8.5" stroke-miterlimit="10"/>
<path fill-rule="evenodd" clip-rule="evenodd" d="M1227.53 82.54C1229 81.97 1230.25 81.18 1231.61 80.16C1232.97 79.14 1234.1 77.89 1235.12 76.54C1236.14 75.18 1237.05 73.6 1237.5 71.78C1238.07 69.97 1238.41 67.48 1238.41 65.44C1238.41 62.16 1237.84 59.21 1236.82 56.72C1235.69 54.23 1234.33 52.19 1232.4 50.49C1230.47 48.79 1228.21 47.66 1225.6 46.87C1222.88 46.08 1219.82 45.62 1216.65 45.62C1214.61 45.62 1211.78 45.62 1208.38 45.73C1204.76 45.73 1199.77 45.84 1194.56 45.96V108.48H1208.72V85.83H1212.34C1219.48 85.83 1221.63 89.68 1222.87 94.44C1224.12 99.2 1225.02 105.77 1226.04 108.49H1240.2C1236.8 103.39 1237.14 85.04 1227.51 82.55M1215.53 74.84C1213.49 74.84 1211.23 74.95 1208.62 74.95V56.6C1211.23 56.6 1213.6 56.71 1215.53 56.71C1224.03 56.71 1223.69 63.62 1223.69 65.77C1223.69 68.04 1224.03 74.83 1215.53 74.83" fill="white"/>
<path fill-rule="evenodd" clip-rule="evenodd" d="M1074.73 107.58C1077.67 106.67 1080.17 105.31 1082.21 103.62C1084.14 101.92 1085.61 100 1086.63 97.6201C1087.65 95.2401 1088.22 92.8601 1088.22 89.9201C1088.22 85.9601 1086.97 82.4401 1084.82 79.5001C1082.44 76.5601 1079.04 74.0601 1074.63 72.1401L1063.87 67.6101C1060.47 66.1401 1058.66 64.4401 1058.66 62.0601C1058.66 60.7001 1059.23 59.4501 1060.47 58.4401C1061.72 57.3101 1063.3 56.7401 1065.79 56.7401C1070.32 56.7401 1075.76 58.1001 1081.99 61.0401C1084.82 58.4301 1086.41 54.8101 1086.75 50.2801C1079.84 47.0001 1073.27 45.1801 1066.47 45.1801C1063.19 45.1801 1060.13 45.7501 1057.41 46.6501C1054.69 47.6701 1052.2 49.0301 1050.27 50.6101C1048.34 52.3101 1046.87 54.1201 1045.74 56.5001C1044.61 58.8801 1044.04 61.26 1044.04 64.09C1044.04 68.05 1045.17 71.3401 1047.32 73.9401C1049.7 76.5501 1052.76 78.7001 1056.83 80.6201L1067.36 85.0401C1070.98 86.6301 1072.91 88.6601 1072.91 91.6101C1072.91 93.2001 1072.34 94.5501 1071.1 95.6901C1069.97 96.9401 1068.27 97.5001 1065.66 97.5001C1059.88 97.5001 1053.77 95.5701 1047.31 91.7201C1045.84 92.8501 1044.7 94.5501 1043.57 96.4801C1042.44 98.4101 1041.87 100.33 1041.64 102.37C1048.66 106.67 1055.91 108.94 1064.18 109.05C1068.26 109.16 1071.77 108.6 1074.71 107.58" fill="white"/>
<path fill-rule="evenodd" clip-rule="evenodd" d="M1103.5 124.57C1103.5 124.12 1100.1 123.89 1095.68 123.89C1091.26 123.89 1087.86 124.23 1087.86 124.57L1067.7 185.96L1067.25 187.21H1081.41L1085.26 174.86C1086.05 174.97 1087.3 174.97 1088.88 174.97L1095.45 175.08L1102.02 174.97C1103.72 174.97 1104.85 174.97 1105.64 174.86L1109.49 187.21H1123.65L1103.49 124.57H1103.5ZM1098.86 163.64H1092.74L1089.12 163.75L1091.27 155.59C1093.76 146.53 1095.12 141.77 1095.57 139.17H1096.25C1096.7 141.78 1098.18 146.53 1100.55 155.59L1102.7 163.75L1098.85 163.64H1098.86Z" fill="white"/>
<path fill-rule="evenodd" clip-rule="evenodd" d="M1146.09 124.57C1146.09 124.12 1142.81 123.89 1138.61 123.89C1134.41 123.89 1131.13 124.23 1131.13 124.57V187.21H1169.87V174.86H1145.97V124.57H1146.08H1146.09Z" fill="white"/>
<path fill-rule="evenodd" clip-rule="evenodd" d="M1193.78 124.68H1178.94V125.36V147.79V163.98V186.41V187.2H1203.75H1217.56V174.97H1193.78V161.49H1203.97H1213.37V149.26H1194H1193.78V136.91H1217.56V124.68H1203.75H1193.78Z" fill="white"/>
<path fill-rule="evenodd" clip-rule="evenodd" d="M1350.88 123.89C1346.92 123.89 1343.63 124.23 1343.63 124.57V187.21H1358.24V124.57C1358.24 124.23 1354.96 123.89 1350.88 123.89Z" fill="white"/>
<path fill-rule="evenodd" clip-rule="evenodd" d="M1270.23 123.89C1266.61 123.89 1263.66 124.23 1263.55 124.57V169.31C1262.3 166.37 1260.83 162.4 1258.68 157.53L1244.63 124.57C1244.52 124.23 1240.78 123.89 1236.13 123.89C1231.48 123.89 1227.75 124.23 1227.63 124.57V187.21H1241V143.83C1242.47 147.68 1243.94 151.42 1245.42 154.36L1259.58 187.21H1276.8V124.57C1276.8 124.23 1273.97 123.89 1270.23 123.89Z" fill="white"/>
<path fill-rule="evenodd" clip-rule="evenodd" d="M1402.08 124.57C1402.08 124.12 1398.68 123.89 1394.26 123.89C1389.84 123.89 1386.44 124.23 1386.44 124.57L1366.28 185.96L1365.83 187.21H1379.99L1383.84 174.86C1384.63 174.97 1385.88 174.97 1387.46 174.97L1394.03 175.08L1400.6 174.97C1402.3 174.97 1403.43 174.97 1404.22 174.86L1408.07 187.21H1422.23L1402.07 124.57H1402.08ZM1397.32 163.64H1391.2L1387.58 163.75L1389.73 155.59C1392.22 146.53 1393.58 141.77 1394.03 139.17H1394.71C1395.16 141.78 1396.64 146.53 1399.01 155.59L1401.16 163.75L1397.31 163.64H1397.32Z" fill="white"/>
<path fill-rule="evenodd" clip-rule="evenodd" d="M1299.57 155.6C1299.57 148.8 1300.48 145.52 1302.18 142.12C1303.88 138.72 1306.6 136.91 1310.34 136.91C1315.55 136.91 1319.97 140.87 1319.97 147.9C1322.12 148.81 1324.39 149.15 1327.11 149.26C1329.83 149.37 1332.21 148.81 1334.47 148.01C1334.58 143.59 1333.9 124 1310.57 124C1307.06 124 1303.55 124.34 1300.49 125.7C1297.43 127.06 1294.6 129.1 1292.33 131.82C1289.95 134.54 1288.14 137.94 1286.78 142.01C1285.42 145.97 1284.74 150.62 1284.74 155.83V156.28C1284.74 161.49 1285.42 166.13 1286.78 170.1C1288.14 174.18 1289.95 177.58 1292.33 180.29C1294.71 182.9 1297.43 185.05 1300.49 186.41C1303.55 187.77 1307.06 188.11 1310.57 188.11C1334.02 188.11 1334.58 168.51 1334.47 164.1C1332.2 163.31 1329.83 162.74 1327.11 162.85C1324.5 162.96 1322.13 163.3 1319.97 164.21C1319.97 171.23 1315.55 175.2 1310.34 175.2C1306.6 175.2 1303.77 173.39 1302.18 169.99C1300.48 166.59 1299.57 163.19 1299.57 156.51V155.6Z" fill="white"/>
<path fill-rule="evenodd" clip-rule="evenodd" d="M1168.07 45.84C1168.07 45.39 1164.67 45.16 1160.25 45.16C1155.83 45.16 1152.43 45.5 1152.43 45.84L1132.27 107.12L1131.82 108.37H1145.98L1149.83 96.02C1150.62 96.13 1151.87 96.13 1153.45 96.13L1160.02 96.24L1166.59 96.13C1168.29 96.13 1169.42 96.13 1170.21 96.02L1174.06 108.37H1188.22L1168.06 45.85L1168.07 45.84ZM1163.42 84.7H1157.3L1153.68 84.81L1155.83 76.65C1158.32 67.59 1159.68 62.83 1160.13 60.23H1160.81C1161.26 62.84 1162.74 67.59 1165.11 76.65L1167.26 84.81L1163.41 84.7H1163.42Z" fill="white"/>
<path fill-rule="evenodd" clip-rule="evenodd" d="M1335.93 45.05C1332.08 45.05 1328.79 45.39 1328.79 45.73V85.49C1328.79 89.68 1328.11 92.74 1326.52 94.78C1325.05 96.93 1322.56 97.84 1318.93 97.84H1318.7C1315.08 97.84 1312.58 96.82 1311.11 94.78C1309.52 92.63 1308.84 89.57 1308.84 85.49V45.73C1308.84 45.28 1305.67 45.05 1301.7 45.05C1297.73 45.05 1294.56 45.39 1294.56 45.73V85.3701C1294.56 93.0701 1296.71 98.8501 1300.79 103.04C1304.98 107.23 1310.87 109.27 1318.69 109.27C1326.51 109.27 1332.4 107.12 1336.59 103.04C1340.78 98.8501 1342.82 93.0701 1342.82 85.3701V45.73C1343.05 45.39 1339.76 45.05 1335.91 45.05" fill="white"/>
<path d="M1072.92 124.57C1072.92 124.12 1069.52 123.89 1065.22 123.89C1060.92 123.89 1057.52 124.23 1057.52 124.57C1057.18 126.16 1049.25 152.77 1044.72 166.37C1040.19 152.78 1032.37 126.16 1031.81 124.57C1031.81 124.12 1028.41 123.89 1024.11 123.89C1019.81 123.89 1016.41 124.23 1016.41 124.57L1036.69 187.21H1052.66L1072.94 124.57H1072.92Z" fill="white"/>
<path fill-rule="evenodd" clip-rule="evenodd" d="M1136.24 45.9601C1136.17 45.9601 1136.17 45.9601 1136.24 45.9601H1091.61C1091.27 45.9601 1090.93 48.6801 1090.93 51.9601C1090.93 55.2401 1091.27 58.0801 1091.61 58.0801H1100.9L1106.56 57.9701V108.49H1121.06V57.9701L1126.72 58.0801H1136.01C1136.35 58.0801 1136.69 55.3601 1136.69 51.9601C1136.92 48.6801 1136.58 45.9601 1136.24 45.9601Z" fill="white"/>
<path fill-rule="evenodd" clip-rule="evenodd" d="M1396.19 57.62C1395.17 55.01 1393.58 52.64 1391.77 50.82C1389.84 48.89 1387.58 47.65 1384.75 46.74C1382.03 45.83 1378.97 45.38 1375.69 45.38C1373.88 45.38 1371.27 45.38 1367.76 45.49C1364.36 45.49 1359.26 45.6 1354.05 45.72V108.36H1368.32V88.31H1375.57C1378.85 88.31 1381.91 87.86 1384.4 86.95C1387.01 86.04 1389.5 84.57 1391.42 82.87C1393.46 81.06 1394.82 78.79 1395.95 76.07C1397.08 73.35 1397.65 70.29 1397.65 66.78C1397.54 63.27 1397.2 60.21 1396.18 57.61M1375.35 77.33C1373.31 77.33 1371.05 77.44 1368.33 77.44V56.49C1370.94 56.49 1373.31 56.6 1375.35 56.6C1383.85 56.6 1383.51 64.42 1383.51 66.91C1383.51 69.4 1383.85 77.33 1375.35 77.33Z" fill="white"/>
<path fill-rule="evenodd" clip-rule="evenodd" d="M1287.79 45.9601H1243.16C1242.82 45.9601 1242.48 48.6801 1242.48 52.0801C1242.48 55.4801 1242.82 58.2001 1243.16 58.2001H1252.45L1258.11 58.0901V108.61H1272.61V57.9801L1278.27 58.0901H1287.56C1287.9 58.0901 1288.24 55.3701 1288.24 51.9701C1288.47 48.6901 1288.24 45.9701 1287.79 45.9701" fill="white"/>
</svg>
