<svg width="398" height="218" viewBox="0 0 398 218" fill="none" xmlns="http://www.w3.org/2000/svg">
<path d="M43.1628 201.03C48.7099 201.03 52.8747 199.376 55.6502 196.068C58.4247 192.755 59.815 188.234 59.815 182.496C59.815 176.757 58.4247 172.235 55.6502 168.924C52.8747 165.615 48.7099 163.96 43.1628 163.96C38.269 163.96 34.3797 165.338 31.495 168.098C28.6063 170.855 27.1679 174.662 27.1679 179.518V185.473C27.1679 190.329 28.6063 194.135 31.495 196.893C34.3797 199.654 38.269 201.03 43.1628 201.03ZM46.5572 216.918C41.0071 216.918 36.2796 215.853 32.3716 213.72C28.4627 211.587 25.3408 208.609 23.0031 204.783H18.4044V215.595H0V197.501H8.98282V122.918H27.1679V158.443H27.6057C29.5774 155.135 32.2772 152.579 35.7129 150.776C39.1456 148.974 43.272 148.073 48.0901 148.073C54.4449 148.073 59.8484 149.488 64.3044 152.321C68.7594 155.154 72.1577 159.162 74.4954 164.345C76.8331 169.532 78 175.582 78 182.496C78 189.337 76.7947 195.348 74.3862 200.536C71.9727 205.719 68.4318 209.746 63.7564 212.617C59.082 215.485 53.3499 216.918 46.5572 216.918Z" fill="white"/>
<path d="M113.451 203.22C116.901 203.22 119.947 202.599 122.589 201.351C125.234 200.107 127.325 198.436 128.866 196.346C130.406 194.257 131.176 191.891 131.176 189.253V188.263H113.121C106.513 188.263 103.213 190.72 103.213 195.634C103.213 198.052 104.126 199.921 105.964 201.241C107.801 202.56 110.294 203.22 113.451 203.22ZM110.7 217.082C102.916 217.082 96.8261 215.194 92.4239 211.417C88.0177 207.641 85.8167 202.671 85.8167 196.513C85.8167 189.984 88.0899 184.96 92.6434 181.442C97.19 177.919 103.725 176.16 112.241 176.16H131.176V173.631C131.176 166.518 126.919 162.961 118.407 162.961C110.992 162.961 106.513 165.528 104.973 170.662H86.8074C88.2719 163.402 91.6872 157.9 97.0456 154.162C102.404 150.419 109.523 148.55 118.407 148.55C128.24 148.55 135.746 150.749 140.922 155.151C146.099 159.549 148.682 165.969 148.682 174.401V197.833H157.27V215.873H138.774V205.093H134.152C131.875 208.908 128.828 211.858 125.014 213.946C121.196 216.04 116.422 217.082 110.7 217.082Z" fill="white"/>
<path d="M250.305 175.5H282.455C281.867 171.322 280.254 168.186 277.613 166.094C274.968 164.004 271.408 162.961 266.93 162.961C262.453 162.961 258.802 164.023 255.975 166.15C253.151 168.277 251.257 171.394 250.305 175.5ZM267.481 217.192C260.361 217.192 254.16 215.782 248.874 212.957C243.588 210.136 239.516 206.136 236.652 200.968C233.79 195.797 232.359 189.692 232.359 182.651C232.359 175.61 233.752 169.544 236.545 164.444C239.33 159.348 243.315 155.424 248.492 152.675C253.663 149.926 259.773 148.55 266.82 148.55C273.719 148.55 279.647 149.869 284.603 152.509C289.555 155.151 293.354 158.927 295.999 163.841C298.64 168.755 299.961 174.621 299.961 181.442V187.603H249.865C250.598 192.517 252.469 196.255 255.481 198.822C258.486 201.389 262.453 202.671 267.371 202.671C271.26 202.671 274.342 202.011 276.618 200.691C278.896 199.372 280.508 197.355 281.464 194.64H299.741C298.272 201.681 294.713 207.201 289.062 211.198C283.408 215.194 276.217 217.192 267.481 217.192Z" fill="white"/>
<path d="M330 215.873V203.435L367.689 167.358C371.913 163.363 374.745 160.179 376.177 157.805C377.608 155.428 378.326 152.961 378.326 150.396C378.326 146.626 377.082 143.668 374.593 141.521C372.105 139.369 368.667 138.298 364.294 138.298C354.561 138.298 349.088 143.349 347.883 153.452H330C330.601 143.875 333.94 136.395 340.018 131.001C346.088 125.615 354.257 122.918 364.52 122.918C371.086 122.918 376.782 124.032 381.611 126.254C386.44 128.48 390.174 131.61 392.815 135.639C395.455 139.673 396.778 144.48 396.778 150.057C396.778 154.808 395.491 159.314 392.928 163.57C390.365 167.83 386.253 172.6 380.593 177.878L357.163 199.476L357.276 199.927H397.797V215.873H330Z" fill="white"/>
<path d="M196.467 217.192C186.779 217.192 179.125 215.156 173.512 211.087C167.896 207.015 164.868 201.317 164.427 193.98H182.044C182.631 197.135 184.153 199.482 186.612 201.021C189.071 202.56 192.616 203.33 197.238 203.33C204.797 203.33 208.576 201.241 208.576 197.062C208.576 195.375 208.008 194.037 206.873 193.047C205.731 192.058 203.845 191.307 201.2 190.791L186.449 187.933C173.235 185.365 166.628 179.171 166.628 169.339C166.628 163.034 169.163 157.991 174.226 154.214C179.292 150.438 186.301 148.55 195.257 148.55C204.137 148.55 211.184 150.495 216.394 154.381C221.608 158.268 224.47 163.694 224.982 170.663H207.366C206.558 167.579 205.127 165.342 203.075 163.951C201.018 162.559 198.043 161.858 194.157 161.858C190.779 161.858 188.21 162.355 186.449 163.345C184.685 164.334 183.804 165.821 183.804 167.8C183.804 169.194 184.358 170.366 185.459 171.322C186.559 172.274 188.244 172.971 190.521 173.411L205.605 176.27C212.505 177.665 217.571 179.902 220.8 182.981C224.03 186.06 225.646 190.242 225.646 195.523C225.646 202.34 223.13 207.66 218.102 211.471C213.074 215.285 205.86 217.192 196.467 217.192Z" fill="white"/>
<path d="M12.7861 2.64351e-05L4.1171e-06 12.637L63.1356 75.0453L21.3811 75.0453L21.3811 92.9187L94 92.9187L94 21.1739L75.9196 21.1739L75.9196 62.4083L12.7861 2.64351e-05Z" fill="white"/>
<path d="M159.5 93H141.5V77.2598L149.984 85.7441L159.5 76.2285V93ZM141.5 24.7725L154.772 37.5H130V55.5H154.772L141.5 68.2285L123.984 85.7441L111.256 73.0166L128.772 55.5H104V37.5H128.772L111.256 19.9834L123.983 7.25586L141.5 24.7725ZM159.5 16.7725L149.983 7.25586L141.5 15.7393V0H159.5V16.7725Z" fill="white"/>
<path d="M211.5 24.7725L229.018 7.25586L241.745 19.9834L224.229 37.5H249V55.5H224.228L241.744 73.0166L229.017 85.7441L211.5 68.2275V93H193.5V68.2285L175.984 85.7441L163.256 73.0166L180.772 55.5H156V37.5H180.772L163.256 19.9834L175.983 7.25586L193.5 24.7725V0H211.5V24.7725Z" fill="white"/>
</svg>
